<svg id="Capa_1" data-name="Capa 1" xmlns="http://www.w3.org/2000/svg" viewBox="0 0 808.88 752.75"><defs><style>.cls-1{fill:#90d4f6;}.cls-2{fill:#50b6d4;opacity:0.38;}.cls-3{opacity:0.17;}.cls-4,.cls-5{fill:#0083aa;}.cls-5{opacity:0.15;}.cls-14,.cls-6,.cls-7,.cls-8{fill:none;stroke-linecap:round;stroke-linejoin:round;}.cls-6,.cls-7,.cls-8{stroke:#fff;}.cls-6{stroke-width:1.81px;}.cls-7{stroke-width:1.28px;}.cls-8{stroke-width:1.65px;}.cls-9{fill:#00a6b8;}.cls-10{fill:#00b0bb;}.cls-11{fill:#009e64;}.cls-12{fill:#009953;}.cls-13{fill:#00a66e;}.cls-14{stroke:#542a70;stroke-width:1.19px;}.cls-15{fill:#f193ac;}.cls-16{fill:#eb5d79;}.cls-17{fill:#ea4d6b;}.cls-18{fill:#542a70;}.cls-19{fill:#ef7c98;}.cls-20{fill:#005075;}.cls-21{fill:#3f9ec3;}.cls-22{fill:#2c7298;}.cls-23{fill:#fff;}</style></defs><path class="cls-1" d="M438,740.72c-22.86,3.92-44,11.81-67.6,12-22.6.21-41.08-15.63-58.43-29.17C296.33,711.4,281,700,261.09,697.15c-24.93-3.52-47.95.32-69.63-14.5-19-13-25.32-32.5-40.41-49-19.5-21.3-43.61-31.44-55.54-59.31C85.75,551.52,80.69,531,66.67,510,57.39,496.05,48.46,482,40.33,467.42c-7.62-13.7-17-23.62-26-36.17-34.68-48,3.67-120.57,11.12-171.48,2.49-17,5.53-32.44,11.2-48.95,8.18-23.78,15-51.08,25.62-73.93,7.59-16.35,26.62-30.3,41.61-39.86,19.4-12.37,33.48-21.35,50.09-36.83,23.48-21.87,51-32.93,83.84-30.44,25.91,2,46.44,16.37,72.9,8.5C335.18,31,357,17.32,382,10.14,413,1.2,458.29-6.27,489.21,7.93c21,9.65,28.5,30.77,53.05,37.27,9.3,2.47,20.13,5.1,29.79,5,11.74-.09,22.24-5.38,33.88-6.48,25.63-2.4,82.2,5.71,96.59,30.66,12,20.75,1.64,53.06,3.29,76.07,4.26,59.22,72.34,65.12,97,112.7,23.08,44.58-26.17,61.7-35.69,101-3.16,13-2.86,24.06-9.35,36.24-4.24,8-8.6,13.1-9.77,22.47-1.87,14.89,7.81,33.93,3.33,47.88-3.86,12-21.52,26-30.08,35.87-12.41,14.37-28.83,25.25-34.72,44.57-4,13.12-2,28.54-2.07,42-.16,20.76-11.14,32.69-23.86,48.71s-26.86,21.64-43.36,33.54c-11.81,8.52-18,20.89-28.1,30.67-16.18,15.63-52.65,14.83-74.73,18.16-19,2.86-46,4.5-63,13.07Z"/><path class="cls-2" d="M145.87,420.24s19,3.73,26.22-5.6a8.09,8.09,0,0,1-1.55,6.58s-4.31,4.61-13.19,6.4c0,0-9.13,10.7-5.16,24,0,0,1.32.44,2.38-2.69,0,0,4.28,2.55-.49,12.34,0,0,12.44,28.47,39,35.8l6.13-16.51s11.28,4.73,15.21,25.74c0,0,25.74,12,32.59,22.22,0,0-2.7,12.88-45.09,6.1a27.29,27.29,0,0,1-22.32,1.29,67.77,67.77,0,0,0,5.15-8.19s-31-20.78-38-45.93c0,0-2.93,1-3.34-5.91,0,0-6.79-24,5-48.69A10,10,0,0,1,145.87,420.24Z"/><g class="cls-3"><path class="cls-4" d="M699.42,240.11a32.07,32.07,0,0,0-2.29-9.59s-.75-1.59.43-1.82c0,0,19.09-9.88,19.18-36.62,0,0-15.87-1-22.47,34.13,0,0-1.18,3.31-3,4.65,0,0-4.07,4-4.81,8.6C686.49,239.46,693,233.64,699.42,240.11Z"/><path class="cls-4" d="M687.31,285.14s-2.84-5-6.48-6.47a1.49,1.49,0,0,1-.8-2S685.84,248,674.5,236c0,0-13,18.17,1.16,39.91,0,0,1,1.65-.48,4.44,0,0-2.74,5.83,0,9.87C675.17,290.26,676.76,282.71,687.31,285.14Z"/><path class="cls-4" d="M731.79,345.74s-7.14-2.76-9.63-2.55c0,0-1.83.23-1.89-3.31,0,0-5.88-22.93-22.14-34,0,0-8,19.59,18.77,37.42l.67.44a4.86,4.86,0,0,1,1.17,3.49s.46,6.75,4.66,9.12C723.4,356.36,722.32,348.3,731.79,345.74Z"/><path class="cls-4" d="M714.07,443.61s-.8,7.18,5.57,9c0,0-32.1,9.42-56.9-18.94,0,0,24.67-.87,40,17.09C702.74,450.77,713.2,444.19,714.07,443.61Z"/><path class="cls-4" d="M733.06,299,721.9,294.6s10.22-26.86-4.79-44.49c0,0-18.83,35.65,9.51,57.14C726.62,307.25,727.19,298.24,733.06,299Z"/></g><path class="cls-5" d="M605,118.83s8.55,21.76,12.14,25.17c0,0,.48,10.88,1.15,15.37l4.89-9.29s20.85,21.75,27.09,31.39c0,0,2.74,7.11,1.16,11.94l5.3-5.08s8.88,2.5,11.91,2.77a3.57,3.57,0,0,0,.71,0s-13-9.73-13.83-10.19-4-6.91-4-6.91l4.2-2.21L649,168.12s-9.48-24.19-13.18-27.38c-2-3.54,6.28-2.49,6.28-2.49s-5-6.06-12.37-6.66C629.72,131.59,613.71,119,605,118.83Z"/><path class="cls-5" d="M276.35,255.55s17.63-14.58,19.71-19c0,0,10-3.76,13.95-5.75l-10.13-1.72s13.87-26,20.94-34.76c0,0,5.77-4.72,10.74-4.72l-6.33-3.38s-.38-9-1.06-11.93a3.53,3.53,0,0,0-.2-.66s-5.1,15-5.26,16-5.23,5.79-5.23,5.79l-3.33-3.24-1.38,7.41s-19.6,16.19-21.44,20.6c-2.68,2.94-4.23-5.08-4.23-5.08s-4.13,6.45-2.42,13.53C280.68,228.64,273.86,247.37,276.35,255.55Z"/><path class="cls-6" d="M192.22,600.62c.17-3.37,5.3-6.84,5-10.19s-6-5.87-6.71-9.15,3.23-8,2-11.16-7.32-4-8.94-7,.94-8.58-1.09-11.29"/><path class="cls-6" d="M197.92,637c1.65-3.11,7.82-4.13,9.06-7.34s-2.64-8.18-1.79-11.53,6.63-5.83,7.08-9.26-4.49-7.31-4.45-10.78,5.07-7.21,4.7-10.67"/><path class="cls-7" d="M482.24,148.23c2.81,1.9,3.66,7,6.6,8.63s7.73-.25,10.8,1.16,4.74,6.28,7.91,7.43,7.59-1.51,10.85-.62,5.7,5.42,9,6,7.23-2.73,10.6-2.38"/><path class="cls-7" d="M506.77,174.89c3.26,1.12,5.43,5.82,8.75,6.68s7.51-2.18,10.89-1.56,6.22,4.93,9.64,5.3,7.1-3.28,10.53-3.17,6.89,4,10.33,3.8,6.52-4.3,9.94-4.71"/><path class="cls-8" d="M475.75,443.6c4.11-1.48,10,1.5,14-.3s5.61-8.22,9.4-10.34,10.13-.15,13.73-2.57,4.19-9,7.59-11.74,10-1.79,13.13-4.77,2.67-9.59,5.59-12.81"/><path class="cls-9" d="M429.24,236.25a95.51,95.51,0,1,0,95.51,95.51A95.5,95.5,0,0,0,429.24,236.25Z"/><path class="cls-10" d="M404.46,412s-2.52,23,0,45.88l-14.37,7.79,2.45-10.36-6.35-49.06Z"/><path class="cls-10" d="M431.8,418.1a143,143,0,0,1-17.73,31.69l11.23,13.14,1.93-8.56s22.11-16.3,30.57-40.35Z"/><path class="cls-11" d="M422.42,216.41a95.51,95.51,0,1,0,95.5,95.5A95.51,95.51,0,0,0,422.42,216.41Zm0,137.32a41.82,41.82,0,1,1,41.81-41.82A41.81,41.81,0,0,1,422.42,353.73Z"/><path class="cls-12" d="M424.7,393.7c-40.53-.28-69.69-20.73-85.22-34.4a95.51,95.51,0,0,0,178.44-47.39c0-.88,0-1.75,0-2.63C503.51,355.16,470.75,394,424.7,393.7Z"/><path class="cls-12" d="M422.42,261.34c-32.54,0-39.13,28.46-40.46,40a41.82,41.82,0,0,1,82.27,10.59C469.77,293.09,459.36,261.34,422.42,261.34Z"/><path class="cls-12" d="M515.11,288.89l-54.66-25-39.08-5.76-36.89,5-55.3,28.1a95.51,95.51,0,0,0-1.69,10.22c5.91-2.51,31.71-13.35,45.13-17.34a57.06,57.06,0,0,1,20.66-2.2,41.8,41.8,0,0,1,60.11,1.88,52.21,52.21,0,0,1,19-1.14c17.31,2.22,37.77,11.74,44.49,15.05Q516.19,293.25,515.11,288.89Z"/><path class="cls-12" d="M415,353.05a41.64,41.64,0,0,1-14.33-5.44l-13.46,53.07a95.33,95.33,0,0,0,17.61,5.09C406,383.4,412.83,359.91,415,353.05Z"/><path class="cls-12" d="M458.78,332.55a41.9,41.9,0,0,1-17.31,16.58c1.44,14.47,4.56,45.6,4.72,45.84s17,3.35,19.86-9.18a42.86,42.86,0,0,0-.76-22.46l3.68-1Z"/><path class="cls-12" d="M434.21,252.11v-6.83s7.66.41,10.4-11.61c0,0,5.63,1,6.71-4.78a6.22,6.22,0,0,0-4.13-7.35l-43.44,1.73s-2.65,12.11,9.17,10.36l12.27,9.63-.5,9.15Z"/><path class="cls-13" d="M329.21,291.15l3.46-4.42s9.41-29.53,36.09-49.75,59.95-18.19,59.95-18.19.05-.82.11-2.14c-2.12-.14-4.25-.24-6.4-.24A95.51,95.51,0,0,0,329.21,291.15Z"/><path class="cls-14" d="M352.51,246.85s40.15.25,36.53,39.88"/><path class="cls-14" d="M328.79,330.84s20.54-29.61,52.84-9.71"/><path class="cls-14" d="M368.76,390.93s.84-40.31,31.44-43.59"/><path class="cls-14" d="M452.57,340.88s35.18,1.29,32.68,43"/><path class="cls-14" d="M464.23,311.91s21.35-26.35,53.69,0"/><path class="cls-14" d="M451.32,281.7s5.54-45.58,42.11-33.65"/><path class="cls-14" d="M422.42,270.1s8.81-28.39,0-53.69"/><path class="cls-14" d="M382,225.37q-2.5,1.17-4.92,2.47m-13.5,159.3A95.48,95.48,0,1,0,390,222.05m32.4,131.68a41.82,41.82,0,1,1,41.81-41.82A41.81,41.81,0,0,1,422.42,353.73Z"/><path class="cls-15" d="M385.19,358.36s-15.52,52.85,2.74,100.82l-1.29,6.52,14.84-9.24s-6.7-53.67,5.93-91.13Z"/><path class="cls-14" d="M381.89,398.18s-1.34,4.85,3.39,3.64"/><path class="cls-14" d="M386.64,465.7l14.84-9.24s-6.7-53.67,5.93-91.13l-22.22-7"/><path class="cls-15" d="M461,358.36s11.77,47.06-35.28,94.6l-1.13,6.55-10.55-13.94s16.73-23.65,22.35-45.47a84.82,84.82,0,0,0,.36-40.3Z"/><path class="cls-14" d="M436.78,359.8,461,358.36s11.77,47.06-35.28,94.6l-1.13,6.55-10.55-13.94"/><path class="cls-14" d="M452.28,402.49s5-.15,2.48-4.31"/><path class="cls-16" d="M378.85,360.35a384.68,384.68,0,0,1,11.73-44.71l14.52-6.79h36.38l14.39,9.78s5.16,21.94,8.56,41.72c0,0-15.21,7.42-30,7.83l-13.05-27.3-9.75,25.94S398.22,368.81,378.85,360.35Z"/><path class="cls-17" d="M414.06,340l-6.43,27a32,32,0,0,0,4-.2l9.75-25.94h0A33.93,33.93,0,0,1,414.06,340Z"/><path class="cls-14" d="M381.81,346.78c.25-1.07.52-2.2.81-3.37"/><path class="cls-14" d="M421.37,340.88l-9.75,25.94s-13.4,2-32.77-6.47c0,0,.6-3.17,1.76-8.35"/><path class="cls-14" d="M390.58,315.64l14.52-6.79h36.38l14.39,9.78s5.16,21.94,8.56,41.72c0,0-15.21,7.42-30,7.83"/><path class="cls-14" d="M395.39,319.64s6.11,9.57-7.46,14"/><path class="cls-14" d="M444.13,322.16s3.73,16.56,12.63,10.31"/><path class="cls-14" d="M422.81,314.21c-.06,5.91-10.38,6.38-10,16.63"/><path class="cls-14" d="M433.68,330.84c-4.07-2-12-6.38-9.44-16.56"/><path class="cls-14" d="M406.93,337.56a33.37,33.37,0,0,0,26.75.95"/><path class="cls-15" d="M454.29,270.75C478.9,273.64,521.08,296,521.08,296l3.36,4.33s4.11,6.11,5.09,5.36-2.84-6.13-2.84-6.13,5.83,6.4,6.61,5.38-4.82-7.1-4.82-7.1,6.59,5.91,7.33,4.42-5.8-6.58-5.8-6.58,7.26,4.54,7.83,3.56-7.29-6.79-7.29-6.79,4.31-1.15,3.66-2.17-7.52-.57-7.52-.57c-29-24.43-65.62-39.55-100.1-40.09-34.48.54-71.13,15.66-100.1,40.09,0,0-6.87-.45-7.52.57s3.67,2.17,3.67,2.17-7.88,5.81-7.3,6.79,7.7-3.51,7.7-3.51-6.42,5-5.67,6.53,7.21-4.38,7.21-4.38-5.47,6-4.69,7.06,6.64-5.42,6.64-5.42-3.86,5.42-2.88,6.17,5.1-5.36,5.1-5.36l3.36-4.33s42.17-22.4,66.79-25.29l-1.13,13.53s-8.55,14.93-7.19,31.36a185.22,185.22,0,0,1,33.66-1.36c12.36.68,31.63,4.35,31.63,4.35s3.26-19.69-2.63-33.25Z"/><path class="cls-14" d="M390.58,315.64a185.22,185.22,0,0,1,33.66-1.36c12.36.68,31.63,4.35,31.63,4.35s3.26-19.69-2.63-33.25"/><path class="cls-14" d="M412.34,269.53a.73.73,0,0,0-.72-.73.73.73,0,0,0-.73.73.73.73,0,0,0,.73.72A.72.72,0,0,0,412.34,269.53Z"/><path class="cls-14" d="M445.19,271a.72.72,0,0,0-1.44,0,.72.72,0,1,0,1.44,0Z"/><circle class="cls-14" cx="423.97" cy="302.15" r="0.72"/><path class="cls-14" d="M326.49,289.75s-6.87-.45-7.52.57,3.67,2.17,3.67,2.17-7.88,5.81-7.3,6.79,7.7-3.51,7.7-3.51-6.42,5-5.67,6.53,7.21-4.38,7.21-4.38-5.47,6-4.69,7.06,6.64-5.42,6.64-5.42-3.86,5.42-2.88,6.17,5.1-5.36,5.1-5.36l3.36-4.33s42.17-22.4,66.79-25.29"/><path class="cls-14" d="M322.64,292.49s2,2.75,4.54,1"/><path class="cls-14" d="M322.64,294.87a10.12,10.12,0,0,0,4.54,5.09"/><path class="cls-14" d="M454.29,270.75C478.9,273.64,521.08,296,521.08,296l3.36,4.33s4.11,6.11,5.09,5.36-2.84-6.13-2.84-6.13,5.83,6.4,6.61,5.38-4.82-7.1-4.82-7.1,6.59,5.91,7.33,4.42-5.8-6.58-5.8-6.58,7.26,4.54,7.83,3.56-7.29-6.79-7.29-6.79,4.31-1.15,3.66-2.17-7.52-.57-7.52-.57"/><path class="cls-14" d="M525.61,292.85a3.4,3.4,0,0,0,4.94-.36"/><path class="cls-14" d="M526,300.05s2.13-.84,4.45-5"/><path class="cls-18" d="M407.11,221.22s-2.95-6.62,2.15-9.94a10.85,10.85,0,0,1,1.83-8.08c2.78-3.87,9.43-3.46,9.43-3.46s2.38-6.52,10.46-6,8.28,8.89,8.28,8.89,7.4-.38,5.67,7.87c0,0,6.89,2.55,3.56,11.35Z"/><rect class="cls-15" x="422.42" y="239.79" width="9.6" height="14.12"/><path class="cls-19" d="M422.42,247.19a18.74,18.74,0,0,0,9.6.41v-7.81h-9.6Z"/><path class="cls-15" d="M442.43,221.44c-.34-2.24,5.74-4.29,8,0,3.09,5.8-2.61,13.39-8.18,9.92Z"/><path class="cls-15" d="M442.43,221.44s1.91,8.52-.82,15.38c-3.26,8.18-14.22,10.34-23.76,4.79s-7.1-20.9-7.1-20.9c2.17,0,3.17-2.35,2.85-4.57,0,0,3.08.27,2.9-2.67,0,0,3.84,2.27,5.7-.77a6.37,6.37,0,0,0,4.67,4.44,6.3,6.3,0,0,0,5.92-1.59s.36,3,2.49,3.76a3.55,3.55,0,0,0,3.62-.77A3.4,3.4,0,0,0,442.43,221.44Z"/><path class="cls-15" d="M410.75,220.71c0-2.26-6.26-3.28-8,1.27-2.3,6.15,4.35,12.72,9.42,8.55Z"/><path class="cls-14" d="M404.53,224.2a3.76,3.76,0,0,1,5.16-1.17"/><path class="cls-14" d="M407.92,226.07a6.52,6.52,0,0,1-1.16-3.52"/><path class="cls-14" d="M449.77,224.16a3.76,3.76,0,0,0-5.16-1.17"/><path class="cls-14" d="M446.38,226a6.46,6.46,0,0,0,1.16-3.51"/><path class="cls-14" d="M426.87,220.62a23.55,23.55,0,0,1-.87,5,4.37,4.37,0,0,0,2.44-.26"/><path class="cls-14" d="M416.4,222.39a4.39,4.39,0,0,1,6,.13"/><path class="cls-14" d="M432.15,222.55s2.49-3,5.8,0"/><path class="cls-14" d="M423.87,230.67a11.92,11.92,0,0,0,9.19-1.78"/><path class="cls-19" d="M441.61,236.82a16,16,0,0,0,.52-1.52,3.53,3.53,0,1,0-2,4.21A11.51,11.51,0,0,0,441.61,236.82Z"/><path class="cls-19" d="M414.88,239.19a3.41,3.41,0,0,0,.85.1,3.53,3.53,0,1,0-3.44-4.3A14.77,14.77,0,0,0,414.88,239.19Z"/><path class="cls-14" d="M522,270.19c-1.39-3.31.15-8-1.54-11.15s-6.5-4.44-8.49-7.4-1.4-7.88-3.68-10.64-7.23-3.09-9.76-5.61-2.9-7.46-5.67-9.72-7.68-1.64-10.66-3.62"/><path class="cls-14" d="M513.9,235.12c-1.87-2.23-1.28-6.69-3.31-8.78s-6.51-1.63-8.68-3.57-2.22-6.44-4.53-8.22-6.67-.68-9.1-2.29-3.12-6-5.67-7.48-6.69.28-9.33-1"/><path class="cls-14" d="M320.28,346.78c1,2.85-1.14,6.88.05,9.61s5.6,3.95,7,6.58,0,7,1.62,9.47,6.17,3,8,5.34,1.13,6.87,3.15,9.09,6.56,1.93,8.75,4"/><path class="cls-14" d="M323.38,378.69c1.7,2.52.73,7,2.61,9.38s6.47,2.47,8.52,4.7,1.77,6.81,4,8.88,6.76,1.48,9.13,3.39,2.76,6.46,5.26,8.19,6.9.44,9.53,2"/><path class="cls-14" d="M577.2,337.53c.13,1,.28,2,.46,3.1"/><path class="cls-20" d="M356.18,486.64c0,2.85-2.34,4.57-6.22,4.57h-3.69v4h-2.13V482.07H350C353.84,482.07,356.18,483.79,356.18,486.64Zm-2.13,0c0-1.88-1.43-2.95-4.16-2.95h-3.62v5.89h3.62C352.62,489.58,354.05,488.51,354.05,486.64Z"/><path class="cls-20" d="M368.07,491.9h-7.93l-1.64,3.28h-2.19l6.75-13.11h2.11L372,495.18h-2.24Zm-.74-1.5L364.11,484l-3.22,6.42Zm-2.88-9.4h-1.92l2.9-2.44H368Z"/><path class="cls-20" d="M384.29,488.55h2v5.11a9.59,9.59,0,0,1-5.65,1.67c-4.58,0-7.95-2.83-7.95-6.71s3.37-6.71,8-6.71a8.05,8.05,0,0,1,5.74,2l-1.32,1.16a6.39,6.39,0,0,0-4.33-1.52c-3.45,0-5.95,2.12-5.95,5s2.5,5,5.93,5a6.93,6.93,0,0,0,3.49-.84Z"/><path class="cls-20" d="M390.41,482.07h2.13v13.11h-2.13Z"/><path class="cls-20" d="M409.85,482.07v13.11H408.1l-9-9.78v9.78H397V482.07h1.74l9,9.78v-9.78Z"/><path class="cls-20" d="M423.83,491.9H415.9l-1.64,3.28h-2.2l6.76-13.11h2.11l6.78,13.11h-2.24Zm-.75-1.5L419.87,484l-3.22,6.42Z"/><path class="cls-20" d="M448.49,482.07v13.11h-1.75l-8.95-9.78v9.78h-2.13V482.07h1.75l8.95,9.78v-9.78Z"/><path class="cls-20" d="M451.75,488.62c0-3.84,3.37-6.71,7.95-6.71s7.91,2.85,7.91,6.71-3.37,6.71-7.91,6.71S451.75,492.46,451.75,488.62Zm13.73,0c0-2.9-2.48-5-5.78-5s-5.82,2.14-5.82,5,2.47,5,5.82,5S465.48,491.53,465.48,488.62Z"/><path class="cls-20" d="M339.09,516v1.63H328.26V504.55h10.53v1.63h-8.4v4h7.48v1.59h-7.48V516Z"/><path class="cls-20" d="M355.37,504.55v13.11h-1.75l-8.95-9.78v9.78h-2.13V504.55h1.75l8.95,9.78v-9.78Z"/><path class="cls-20" d="M358.63,511.11c0-3.88,3.37-6.71,7.91-6.71a7.91,7.91,0,0,1,5.67,2l-1.39,1.18a5.91,5.91,0,0,0-4.2-1.55c-3.37,0-5.86,2.13-5.86,5s2.49,5,5.86,5a5.94,5.94,0,0,0,4.2-1.58l1.39,1.18a7.94,7.94,0,0,1-5.69,2.06C362,517.81,358.63,515,358.63,511.11Z"/><path class="cls-20" d="M373.72,511.11c0-3.84,3.37-6.71,7.95-6.71s7.91,2.85,7.91,6.71-3.37,6.7-7.91,6.7S373.72,515,373.72,511.11Zm13.73,0c0-2.91-2.47-5-5.78-5s-5.82,2.13-5.82,5,2.48,5,5.82,5S387.45,514,387.45,511.11Z"/><path class="cls-20" d="M405.67,504.55v13.11h-1.75L395,507.88v9.78h-2.13V504.55h1.75l9,9.78v-9.78Z"/><path class="cls-20" d="M413.11,506.18H408v-1.63h12.35v1.63h-5.12v11.48h-2.11Z"/><path class="cls-20" d="M432.63,517.66l-3.22-4-.93,0h-3.69v4h-2.13V504.55h5.82c3.88,0,6.22,1.72,6.22,4.57a4.2,4.2,0,0,1-3.28,4.14l3.54,4.4Zm-.06-8.54c0-1.87-1.43-2.94-4.16-2.94h-3.62v5.9h3.62C431.14,512.08,432.57,511,432.57,509.12Z"/><path class="cls-20" d="M447.66,514.39h-7.93l-1.64,3.27h-2.2l6.76-13.11h2.11l6.78,13.11H449.3Zm-.75-1.5-3.22-6.43-3.22,6.43Z"/><path class="cls-20" d="M453.75,504.55H460c4.8,0,8.06,2.66,8.06,6.56s-3.26,6.55-8.06,6.55h-6.29ZM459.91,516c3.69,0,6.06-2,6.06-4.92s-2.37-4.93-6.06-4.93h-4V516Z"/><path class="cls-20" d="M480.65,514.39h-7.93l-1.64,3.27h-2.19l6.75-13.11h2.11l6.78,13.11h-2.24Zm-.74-1.5-3.22-6.43-3.22,6.43Z"/><path class="cls-21" d="M263.56,50.94c-1.45.59-3.65,3.85-4.14,4.55a47.16,47.16,0,0,0-5.9,12.41,88.78,88.78,0,0,0-3.31,14.32s-1.92,22.15-4.44,27.87a78.49,78.49,0,0,1-5.77,16c-1.33,2.65-7.13,11.21-10.53,16.88-9.23,15.41-25.8,46.25-21.49,62.62,0,0,2,6,11.11,2.92,4.45-1.5,8.94-2.7,13.33-4.42a173.52,173.52,0,0,0,31.84-16.51q4.39-2.88,8.61-6c3.81-2.84,7.29-5.75,11.61-7.84a29.72,29.72,0,0,1,12.65-3.26c5.94-.05,11.95,1.95,17.83,2.84,12.26,1.84,26.21,2.81,37.63-3,1.63-.82,3.49-2.61,2.68-4.64a3.3,3.3,0,0,0-1.68-1.65c-3.41-1.64-7.59-1.26-11.11-2.8a29.59,29.59,0,0,1-8.53-5.81,44.8,44.8,0,0,1-5.37-6.38c-1.87-2.59-3.76-4.76-7.11-5.2-1.16-.15-2.66.11-3.65-.63-1.48-1.09.57-3.08,1.38-3.84,2.86-2,5.83-3.9,8.8-5.74q10.9-6.75,22.44-12.4a182.67,182.67,0,0,1,30.17-11.79,101.77,101.77,0,0,1,32-4c5.31.21,10.18,2.62,14.6,5.38,2.29,1.44,4.5,3,6.73,4.51s4.46,3.39,7.09,4a3.42,3.42,0,0,0,1.71,0c2.87-.85,1-5,.13-6.65a9.06,9.06,0,0,1-1.16-2.92c-.51-3.37,3.12-4,5.65-4.06a97.79,97.79,0,0,1,42.07,8.62A42,42,0,0,1,503.6,126s17.36,29.11,49.69,34.13c0,0-51.73-48.2-31.61-60.12,0,0-9.74-1.32-16.51,6.48,0,0-33.73-21-56-28.72a20.85,20.85,0,0,1-6.43-3.55c-4.33-3.69,5.42-4.85,7.34-5.26a3.63,3.63,0,0,0,1.16-.4,1.15,1.15,0,0,0,.57-1c-.11-1.4-3-2.12-4.07-2.35-2.66-.57-5.48-.23-8.18-.13-6.54.22-13.25,1-19.79.59A203.22,203.22,0,0,1,398.65,65l-.46,0c-5.26-.57-10.52-1-15.8-1.16a197.29,197.29,0,0,0-26.63.82A163.84,163.84,0,0,0,323.37,71a126.22,126.22,0,0,0-33.11,15.65c-4.91,3.32-9.39,7.18-14,11a1.15,1.15,0,0,1-.7.35c-1.47,0,.85-4.63,1.09-5.24a5.67,5.67,0,0,0,.67-2.74c-.17-1.6-1.29-3.06-1.91-4.5-1.17-2.7-2.35-5.39-3.56-8.08-.62-1.38-1.29-2.74-1.88-4.14-.21-.52-1.49-3-1.26-3.36a84,84,0,0,1-2.93-10.07c-.38-1.7-.69-3.43-.92-5.16C264.77,53.81,265,50.36,263.56,50.94Z"/><path class="cls-22" d="M316.73,573.27S300.56,601.93,272,604c0,0-2.47.36.38,1.94,0,0,5.85,3.47-1.61,3.39a8.29,8.29,0,0,0-4.77-1.74c-2.73,0-16.66,3.12-16.66,3.12l-3.62,1.15s11.38,13.49,49.51,7.72a14.31,14.31,0,0,1,9.23,2.35l.5.35c4.58,3.44,35.54,24.63,56.94,24.51,0,0,7.2-.29,7.49,5.44s-.23.56-.23.56l.79,12.9s.33,2.27,3.33.47c0,0,9-6.32,13.08-7.64s.5-.18.5-.18,12.49-2.2,23,0c0,0,83.61,4.63,139.69-29.74,0,0,2.76.24-1.62,4.12,0,0,7.79,16.31,14.53,23.75l8.76-2.62-5.79,6.5S572.8,674,574.13,681c0,0,19.58-6.26,16.86-74.43,3.25-3.25,6.41-6.6,9.55-10q11.33-12.14,22-24.86a393,393,0,0,0,24.55-32.21c6.75-10,13.22-20.58,17.17-32a47,47,0,0,0,2.62-11.15c.3-3.34.61-8.08-2-10.64a9.69,9.69,0,0,0-6.2-2.38,43.73,43.73,0,0,0-9.08.21s-26-.58-103.7,51.58c0,0-7.55.76-31.51-3.79,0,0-8.5-2.15-24-5.29,0,0-22.61-5.38-29.72-.79a116.48,116.48,0,0,1,18.46,21.93l13.62,18.84a6.45,6.45,0,0,0,3.08,2.5s6.21.05,6.85.17,2.59-.26-.94,3c0,0-27.83,21.93-47.17,27.64a75,75,0,0,1-11.5.38s-18.25-2.11-21.34.53c0,0-3.14.77,1.21,4,0,0,5.58,4.56,5.05,5.26,0,0,.39,1.18-7.29,2.7-1.56.3-9.11,1.77-14.31,2.66-7.37,1.27-18.38,2.66-28.57,2,0,0-5.33-1.24-15.85-8,0,0-2.56-1.73-2.44,1.3l1.18,5.29s1.76,2.06-3.21,3.29c-3.05.76-6.75.25-9.8-.11A92.53,92.53,0,0,1,320.58,611c-3.58-1.64-8.19-5.43-6.46-9.82a19.19,19.19,0,0,1,1.71-3C320.56,590.63,321.61,581,316.73,573.27Z"/><polygon class="cls-23" points="586.07 214.87 528.74 342.38 528.74 382.24 619.11 382.24 619.11 417.73 667.43 417.73 667.43 382.78 691.19 382.78 691.19 344.56 666.89 344.56 666.89 295.69 621.02 295.69 621.02 342.65 583.34 342.65 637.13 214.87 586.07 214.87"/><path class="cls-23" d="M269.44,344.56V295.69H223.57v47H185.89l53.79-127.78H188.62l-3.73,8.31a17.62,17.62,0,0,1-.46,19,17.65,17.65,0,0,1-8,33.25,17.07,17.07,0,0,1,.33,3.29A16.86,16.86,0,0,1,153,294.15l-21.68,48.22v39.87h90.37v35.49H270v-35h23.75V344.56Z"/><path class="cls-23" d="M181.26,213.65a21.4,21.4,0,0,1,.6-2.92,25.13,25.13,0,0,0,.11-6.82,14.56,14.56,0,0,0-6.91-11c-2.6,4.83-1.62,10.61,1.23,15.08A27.19,27.19,0,0,0,181.26,213.65Z"/><path class="cls-23" d="M172.62,215.94a15.32,15.32,0,0,0-1.21-2.32,24.57,24.57,0,0,0-4.44-4.89c-3-2.54-7.23-4.92-11.24-5.14a1.82,1.82,0,0,0-2,1.24,2.43,2.43,0,0,0,.14,1.25c.9,2.76,3.83,5,6.17,6.62a18.93,18.93,0,0,0,9.09,3.34A16.66,16.66,0,0,0,172.62,215.94Z"/></svg>